<svg width="54" height="71" viewBox="0 0 54 71" fill="none" xmlns="http://www.w3.org/2000/svg">
<path d="M53.9062 20.3438C53.9062 23.0312 53.3906 25.6094 52.3594 28.0781C51.3594 30.5469 49.9844 32.8594 48.2344 35.0156C46.5156 37.1719 44.5156 39.125 42.2344 40.875C39.9531 42.625 37.5312 44.125 34.9688 45.375C32.4062 46.625 29.7969 47.5938 27.1406 48.2812C24.4844 48.9688 21.9219 49.3125 19.4531 49.3125C19.2031 49.3125 18.9375 49.3125 18.6562 49.3125C18.4062 49.3125 18.1562 49.2812 17.9062 49.2188L18.4219 46.6406C20.4531 46.2969 22.5 45.7812 24.5625 45.0938C26.6562 44.375 28.6562 43.5 30.5625 42.4688C32.4688 41.4062 34.25 40.1875 35.9062 38.8125C37.5625 37.4062 39 35.8594 40.2188 34.1719C41.4375 32.4531 42.3906 30.5938 43.0781 28.5938C43.7969 26.5625 44.1562 24.3906 44.1562 22.0781C44.1562 19.8594 43.7969 17.8125 43.0781 15.9375C42.3594 14.0625 41.3438 12.4375 40.0312 11.0625C38.75 9.6875 37.2031 8.625 35.3906 7.875C33.5781 7.09375 31.5625 6.70312 29.3438 6.70312C27.0312 6.70312 24.6562 6.96875 22.2188 7.5C19.8125 8.03125 17.4219 8.78125 15.0469 9.75C12.6719 10.7188 10.375 11.9062 8.15625 13.3125C5.96875 14.6875 3.95312 16.2188 2.10938 17.9062L0.65625 16.3125C2.78125 14.1875 5.20312 12.2031 7.92188 10.3594C10.6719 8.48438 13.5469 6.85937 16.5469 5.48438C19.5469 4.07812 22.5781 2.96875 25.6406 2.15625C28.7344 1.34375 31.7031 0.9375 34.5469 0.9375C37.2656 0.9375 39.7969 1.42187 42.1406 2.39062C44.5156 3.32812 46.5625 4.65625 48.2812 6.375C50.0312 8.09375 51.4062 10.1406 52.4062 12.5156C53.4062 14.8906 53.9062 17.5 53.9062 20.3438ZM15.7969 66.8906L6.14062 70.4531V17.9062L15.7969 14.4844V66.8906Z" fill="black"/>
</svg>
